<svg width="20" height="22" viewBox="0 0 20 22" fill="none" xmlns="http://www.w3.org/2000/svg">
<path fill-rule="evenodd" clip-rule="evenodd" d="M0 10.8974C0 4.98994 4.579 0 10 0C15.421 0 20 4.98994 20 10.8974C20 14.3737 18.408 17.5209 16 19.5326V19.6154H15.898C14.23 20.9721 12.187 21.7949 10 21.7949C7.813 21.7949 5.77 20.9721 4.102 19.6154H4V19.5326C1.592 17.5209 0 14.3726 0 10.8974ZM7.12347 16.6033C6.59154 17.0697 6.22136 17.7197 6.074 18.4461C7.242 19.1838 8.584 19.6154 10 19.6154C11.416 19.6154 12.758 19.1838 13.926 18.4461C13.7785 17.7198 13.4082 17.0699 12.8764 16.6036C12.3445 16.1372 11.6827 15.8823 11 15.8808H9C8.3173 15.8821 7.6554 16.137 7.12347 16.6033ZM13.7677 14.6153C14.5877 15.21 15.2286 16.055 15.61 17.0447C17.077 15.4547 18 13.2687 18 10.8974C18 6.17122 14.337 2.17949 10 2.17949C5.663 2.17949 2 6.17122 2 10.8974C2 13.2687 2.923 15.4547 4.39 17.0447C4.77144 16.055 5.41227 15.21 6.23227 14.6153C7.05227 14.0206 8.01501 13.7027 9 13.7013H11C11.985 13.7027 12.9477 14.0206 13.7677 14.6153ZM6 8.71795C6 6.23333 7.72 4.35897 10 4.35897C12.28 4.35897 14 6.23333 14 8.71795C14 11.2026 12.28 13.0769 10 13.0769C7.72 13.0769 6 11.2026 6 8.71795ZM8 8.71795C8 10.0017 8.822 10.8974 10 10.8974C11.178 10.8974 12 10.0017 12 8.71795C12 7.43423 11.178 6.53846 10 6.53846C8.822 6.53846 8 7.43423 8 8.71795Z" fill="#9B9B9B"/>
</svg>
